<svg width="16" height="20" viewBox="0 0 16 20" fill="none" xmlns="http://www.w3.org/2000/svg">
<path fill-rule="evenodd" clip-rule="evenodd" d="M3.12493 0H9.81158L15.4787 5.90705V17.3963C15.4787 18.8356 14.3143 20 12.88 20H3.12493C1.68565 20 0.52124 18.8356 0.52124 17.3963V2.60369C0.521215 1.16441 1.68563 0 3.12493 0Z" fill="#F5959E"/>
<path d="M4.30941 3.02453C4.28499 3.0358 4.24554 3.07149 4.22488 3.09967C4.18731 3.15227 4.18543 3.17293 4.17979 4.00701L4.17416 4.85987H3.93934C3.6801 4.85987 3.60683 4.87866 3.54108 4.96319C3.51103 5.00264 3.49976 5.04021 3.49976 5.11536V5.21492L4.1967 6.0753C4.57805 6.54869 4.91431 6.9507 4.94248 6.96761C5.00072 7.00706 5.14161 7.01082 5.2036 6.977C5.23742 6.95822 6.50168 5.4178 6.62003 5.25249C6.67075 5.17923 6.66887 5.03082 6.6144 4.96319C6.54865 4.87866 6.47538 4.85987 6.21614 4.85987H5.98132L5.97569 4.00889C5.97005 3.08464 5.97193 3.1053 5.8611 3.03768C5.80474 3.00198 5.76153 3.0001 5.07774 3.0001C4.54047 3.0001 4.34323 3.00574 4.30941 3.02453Z" fill="white"/>
<path opacity="0.302" fill-rule="evenodd" clip-rule="evenodd" d="M9.80664 0V5.86207H15.4788L9.80664 0Z" fill="white"/>
<path d="M3.41479 14.9225V11.2694H4.96902C5.35383 11.2694 5.65869 11.3743 5.88857 11.5892C6.11845 11.7991 6.2334 12.084 6.2334 12.4388C6.2334 12.7936 6.11845 13.0785 5.88857 13.2884C5.65869 13.5033 5.35383 13.6082 4.96902 13.6082H4.34933V14.9225H3.41479ZM4.34933 12.8136H4.86408C5.004 12.8136 5.11395 12.7836 5.18892 12.7137C5.26387 12.6487 5.30387 12.5587 5.30387 12.4388C5.30387 12.3189 5.2639 12.2289 5.18892 12.1639C5.11397 12.094 5.00402 12.064 4.86408 12.064H4.34933V12.8136ZM6.61819 14.9225V11.2694H7.91254C8.16741 11.2694 8.4073 11.3043 8.63218 11.3793C8.85706 11.4543 9.06197 11.5592 9.24187 11.7042C9.42179 11.8441 9.56671 12.034 9.67166 12.2739C9.7716 12.5138 9.82659 12.7886 9.82659 13.0985C9.82659 13.4033 9.77163 13.6782 9.67166 13.918C9.56671 14.1579 9.42179 14.3478 9.24187 14.4877C9.06195 14.6327 8.85706 14.7376 8.63218 14.8126C8.4073 14.8875 8.16741 14.9225 7.91254 14.9225H6.61819ZM7.53273 14.1279H7.80259C7.94752 14.1279 8.08246 14.113 8.20739 14.078C8.32732 14.043 8.44228 13.988 8.55222 13.9131C8.65717 13.8381 8.74213 13.7331 8.80209 13.5932C8.86206 13.4533 8.89206 13.2884 8.89206 13.0985C8.89206 12.9035 8.86206 12.7386 8.80209 12.5987C8.74213 12.4588 8.65717 12.3538 8.55222 12.2789C8.44228 12.2039 8.32735 12.1489 8.20739 12.114C8.08246 12.079 7.94752 12.064 7.80259 12.064H7.53273V14.1279ZM10.2964 14.9225V11.2694H12.8951V12.064H11.2309V12.6487H12.5602V13.4383H11.2309V14.9225H10.2964Z" fill="white"/>
</svg>
