<svg width="26" height="26" viewBox="0 0 26 26" fill="none" xmlns="http://www.w3.org/2000/svg"><g clip-path="url(#a)"><path d="M8.844 8.667a2.7 2.7 0 0 1-1.71-.644 5.24 5.24 0 0 1-1.687-3.532C5.184 1.789 6.657.196 8.248.019A2.87 2.87 0 0 1 10.4.662a4.53 4.53 0 0 1 1.49 3.142c.243 2.516-1.098 4.863-3.046 4.863m-5.753 6.5a2.3 2.3 0 0 1-1.542-.644 5.46 5.46 0 0 1-1.517-3.532c-.238-2.702 1.09-4.295 2.526-4.472a2.42 2.42 0 0 1 1.934.643 4.73 4.73 0 0 1 1.345 3.142c.218 2.516-1.115 4.863-2.746 4.863m14.064-6.5c-1.96 0-3.286-2.347-3.04-4.866a4.53 4.53 0 0 1 1.49-3.142 2.88 2.88 0 0 1 2.146-.64c1.592.177 3.065 1.77 2.802 4.472a5.24 5.24 0 0 1-1.687 3.534 2.7 2.7 0 0 1-1.71.642m5.652 6.5c-2.043 0-3.062-2.347-2.833-4.866a4.66 4.66 0 0 1 1.388-3.142 2.55 2.55 0 0 1 2-.644c1.482.178 2.854 1.77 2.61 4.472a5.4 5.4 0 0 1-1.572 3.534c-.434.403-1 .633-1.593.646M17.333 26a5.27 5.27 0 0 1-2.65-.655 3.61 3.61 0 0 0-3.366 0c-3.264 1.827-7.068-.182-6.984-4.761 0-5.023 4.883-9.75 8.667-9.75s8.666 4.727 8.666 9.75c0 3.189-1.782 5.416-4.333 5.416" fill="#979797"/></g><defs><clipPath id="a"><path fill="#fff" d="M0 0h26v26H0z"/></clipPath></defs></svg>