<svg width="8" height="18" viewBox="0 0 8 18" fill="none" xmlns="http://www.w3.org/2000/svg">
<path d="M4.55402 0.468851C5.08181 0.994588 5.31639 1.53728 5.33594 2.23261C5.33594 2.60572 5.29684 2.9449 5.2382 2.99578C5.17955 3.04666 4.92543 2.67355 4.65176 2.18174C3.81119 0.655403 3.75255 -0.311275 4.55402 0.468851Z" fill="#020202"/>
<path d="M6.66406 3.09727C6.66406 3.94523 6.09717 4.75928 5.51073 4.75928C5.00248 4.75928 4.22056 4.1657 3.92734 3.57213C3.79051 3.28382 3.71232 3.01247 3.75141 2.97856C3.96644 2.80896 4.8461 3.36862 5.11977 3.8774L5.45209 4.42009L5.64757 3.69084C5.76485 3.28382 6.05807 2.80896 6.2731 2.63937C6.66406 2.3341 6.66406 2.3341 6.66406 3.09727Z" fill="#020202"/>
<path d="M7.01433 6.36964C6.8775 7.3024 6.25196 7.98077 5.48959 7.98077C4.76631 7.98077 4.14078 7.33632 3.84756 6.25093C3.74982 5.86087 3.78891 5.82695 4.12123 5.89479C4.66857 6.0135 5.29411 6.74275 5.29411 7.23457C5.29411 7.45504 5.3723 7.64159 5.48959 7.64159C5.58733 7.64159 5.68507 7.52287 5.68507 7.37024C5.68507 6.91234 6.31061 5.94566 6.72111 5.75911C7.09253 5.57256 7.11207 5.60648 7.01433 6.36964Z" fill="#020202"/>
<path d="M4.31625 8.99679C4.70721 9.33598 4.80495 9.69212 4.72676 10.6079L4.68766 11.1167L5.21546 10.4383C5.7628 9.743 6.27105 9.35294 6.89659 9.13247C7.36574 8.96287 7.34619 9.21726 6.83794 10.1331C6.40789 10.9132 5.54777 11.422 4.86359 11.3372C4.23806 11.2524 3.69071 10.4722 3.57343 9.52253C3.47569 8.57281 3.67117 8.43714 4.31625 8.99679Z" fill="#020202"/>
<path d="M3.06593 11.9161C3.65237 12.4588 3.78921 12.9506 3.55463 13.6629C3.45689 13.9851 3.4178 14.2565 3.45689 14.2565C3.51554 14.2565 3.82831 13.9851 4.16062 13.646C4.78616 13.0354 5.64627 12.5606 6.15452 12.5606C6.99508 12.5606 5.27486 14.4939 4.27791 14.6805C3.04639 14.9179 2.12763 13.646 2.4795 12.2044L2.65543 11.5091L3.06593 11.9161Z" fill="#020202"/>
<path d="M1.65738 14.6267C2.08743 15.1525 2.04834 16.1022 1.57919 16.7636C1.16868 17.3572 1.24687 17.3402 2.26336 16.7127C3.29941 16.0513 4.90234 15.7291 4.90234 16.17C4.90234 16.4244 3.8272 17.3402 3.20167 17.6285C2.61523 17.8829 1.54009 17.8659 1.09049 17.5776C0.582238 17.2724 0.46495 15.7291 0.875457 14.8811C1.05139 14.5419 1.22732 14.2536 1.28597 14.2536C1.32506 14.2536 1.50099 14.4232 1.65738 14.6267Z" fill="#020202"/>
</svg>
