<svg width="7" height="18" viewBox="0 0 7 18" fill="none" xmlns="http://www.w3.org/2000/svg">
<path d="M2.704 0.466805C2.17607 0.992675 1.94143 1.53551 1.92188 2.23101C1.92188 2.60421 1.96098 2.94348 2.01964 2.99438C2.0783 3.04527 2.33249 2.67207 2.60624 2.18012C3.44703 0.653404 3.50569 -0.313519 2.704 0.466805Z" fill="#020202"/>
<path d="M0.591797 3.09575C0.591797 3.94393 1.15884 4.75818 1.74544 4.75818C2.25382 4.75818 3.03595 4.16445 3.32925 3.57073C3.46612 3.28235 3.54434 3.01093 3.50523 2.977C3.29014 2.80737 2.41025 3.36717 2.1365 3.87607L1.8041 4.41891L1.60857 3.68947C1.49125 3.28235 1.19795 2.80737 0.982862 2.63773C0.591797 2.33239 0.591797 2.33239 0.591797 3.09575Z" fill="#020202"/>
<path d="M0.239587 6.36979C0.376459 7.30278 1.00216 7.98132 1.76474 7.98132C2.48821 7.98132 3.11391 7.33671 3.40721 6.25104C3.50498 5.86088 3.46587 5.82695 3.13347 5.89481C2.58598 6.01355 1.96027 6.74298 1.96027 7.23493C1.96027 7.45545 1.88206 7.64205 1.76474 7.64205C1.66697 7.64205 1.56921 7.52331 1.56921 7.37064C1.56921 6.91262 0.943503 5.9457 0.532885 5.7591C0.161374 5.5725 0.14182 5.60643 0.239587 6.36979Z" fill="#020202"/>
<path d="M2.93844 8.99784C2.54737 9.33711 2.44961 9.69335 2.52782 10.6094L2.56693 11.1183L2.03899 10.4397C1.4915 9.74424 0.983115 9.35408 0.357411 9.13355C-0.111867 8.96392 -0.0923133 9.21837 0.416071 10.1344C0.846242 10.9147 1.70659 11.4236 2.39095 11.3388C3.01665 11.254 3.56414 10.4737 3.68146 9.52371C3.77923 8.57375 3.5837 8.43805 2.93844 8.99784Z" fill="#020202"/>
<path d="M4.19082 11.9173C3.60422 12.4601 3.46735 12.9521 3.70198 13.6645C3.79975 13.9868 3.83886 14.2583 3.79975 14.2583C3.74109 14.2583 3.42824 13.9868 3.09583 13.6476C2.47013 13.0369 1.60979 12.5619 1.1014 12.5619C0.260613 12.5619 1.9813 14.4958 2.97851 14.6824C4.21037 14.9198 5.12937 13.6476 4.77741 12.2057L4.60143 11.5102L4.19082 11.9173Z" fill="#020202"/>
<path d="M5.5974 14.6282C5.16723 15.154 5.20634 16.104 5.67561 16.7656C6.08623 17.3593 6.00802 17.3423 4.99125 16.7147C3.95493 16.0531 2.35156 15.7308 2.35156 16.1719C2.35156 16.4263 3.42699 17.3423 4.05269 17.6307C4.63929 17.8852 5.71472 17.8682 6.16444 17.5798C6.67283 17.2745 6.79015 15.7308 6.37953 14.8826C6.20355 14.5434 6.02757 14.255 5.96891 14.255C5.92981 14.255 5.75383 14.4246 5.5974 14.6282Z" fill="#020202"/>
</svg>
