<?xml version="1.0" standalone="no"?>
<!DOCTYPE svg PUBLIC "-//W3C//DTD SVG 20010904//EN"
 "http://www.w3.org/TR/2001/REC-SVG-20010904/DTD/svg10.dtd">
<svg version="1.0" xmlns="http://www.w3.org/2000/svg"
 width="237.000000pt" height="237.000000pt" viewBox="0 0 237.000000 237.000000"
 preserveAspectRatio="xMidYMid meet">

<g transform="translate(0.000000,237.000000) scale(0.100000,-0.100000)"
fill="#000000" stroke="none">
<path d="M635 1724 l-25 -27 0 -239 c0 -145 4 -247 10 -259 11 -20 60 -49 84
-49 8 0 28 12 45 26 31 25 31 27 31 120 0 52 3 94 8 94 4 0 38 -32 76 -70 137
-139 280 -171 331 -75 23 42 14 93 -23 127 -31 29 -73 51 -184 97 -157 66
-218 130 -218 229 l0 52 -55 0 c-48 0 -60 -4 -80 -26z"/>
<path d="M980 1736 c0 -19 31 -37 146 -86 189 -81 254 -151 254 -276 0 -71
-20 -117 -71 -164 -23 -21 -39 -43 -35 -49 5 -7 43 -11 102 -11 99 0 146 14
158 45 3 9 6 126 6 259 l0 243 -26 27 -27 26 -253 0 c-210 0 -254 -2 -254 -14z"/>
<path d="M627 1072 c-15 -16 -17 -50 -17 -271 l0 -253 29 -29 c29 -28 32 -29
131 -29 116 0 140 8 140 48 0 30 -136 409 -171 476 -36 70 -81 93 -112 58z"/>
<path d="M1026 1073 c-16 -9 -36 -33 -47 -58 -22 -51 -24 -43 76 -315 64 -175
87 -222 100 -208 4 3 36 89 71 190 36 100 71 201 79 223 8 22 15 54 15 70 0
35 -29 83 -62 101 -33 19 -195 16 -232 -3z"/>
<path d="M1451 1051 c-39 -41 -58 -85 -152 -353 -51 -146 -59 -180 -49 -193
10 -12 36 -15 116 -15 113 0 146 10 163 47 16 35 15 525 -1 541 -20 20 -40 14
-77 -27z"/>
</g>
</svg>
