<svg width="16" height="17" viewBox="0 0 16 17" fill="none" xmlns="http://www.w3.org/2000/svg">
<g clip-path="url(#clip0_1348_405)">
<rect width="16" height="16" transform="translate(0 0.216797)" fill="#FAFBFC"/>
<path d="M6.55506 0.219744C6.28315 0.269484 6.07756 0.368964 5.90402 0.534764C5.75259 0.679563 5.65422 0.844258 5.60227 1.0399C5.56358 1.18581 5.56137 1.41129 5.59674 1.54393C5.71169 1.96728 6.11956 2.30661 6.96404 2.68243C7.16521 2.77196 7.29011 2.82391 7.96437 3.09914C8.49382 3.31468 8.93374 3.54127 9.30735 3.78997C9.57042 3.96572 9.76495 4.12378 9.97165 4.33048C10.2414 4.60239 10.4005 4.81572 10.5475 5.10753C10.8979 5.80721 10.9046 6.69258 10.563 7.39336C10.374 7.78023 10.0789 8.11957 9.70527 8.37711C9.66326 8.40695 9.62347 8.43459 9.61684 8.44011C9.61131 8.44564 10.1828 8.44785 10.899 8.44675L12.1923 8.44343L12.2696 8.41801C12.41 8.37048 12.4951 8.31853 12.5957 8.21684C12.7018 8.11183 12.767 7.99908 12.8024 7.8576C12.8212 7.78465 12.8223 7.60338 12.8223 4.32053C12.8223 1.01116 12.8212 0.857522 12.8024 0.788991C12.7394 0.563503 12.5968 0.385544 12.4023 0.288275C12.2398 0.207585 12.2652 0.209796 11.6363 0.205375C11.0947 0.202059 11.0648 0.203164 10.9786 0.224165C10.7056 0.292696 10.5066 0.477287 10.4138 0.749199C10.3917 0.814414 10.3917 0.842047 10.3873 1.61468L10.3839 2.41383L10.3044 2.41273H10.2248L10.1408 2.30551C9.97055 2.08997 9.83349 1.93854 9.56268 1.66663C9.41014 1.5152 9.22776 1.34166 9.15813 1.28197C8.44187 0.669615 7.7654 0.315908 7.12984 0.219744C6.99388 0.199848 6.66449 0.198743 6.55506 0.219744Z" fill="#1E1E1E"/>
<path d="M3.61268 4.22669C3.616 5.50114 3.616 5.50335 3.64032 5.60283C3.67458 5.741 3.71548 5.86258 3.76633 5.97312C3.91223 6.29145 4.41737 6.8806 4.89708 7.29289C5.61113 7.90635 6.37049 8.30095 7.06243 8.41701C7.25587 8.44907 7.52888 8.4568 7.68584 8.43359C8.18877 8.35953 8.55795 8.07878 8.69943 7.66317C8.78675 7.40784 8.78233 7.03313 8.68838 6.78443C8.47284 6.21187 7.91243 5.81948 6.56614 5.29886C5.82446 5.01258 5.65203 4.93963 5.33369 4.78046C5.09052 4.65777 4.96009 4.58371 4.76223 4.45218C4.54116 4.30627 4.40079 4.19242 4.22725 4.01778C3.93434 3.72376 3.74311 3.41316 3.64253 3.06167L3.61047 2.95003L3.61268 4.22669Z" fill="#1E1E1E"/>
<path d="M7.15861 9.24034C7.10777 9.24919 7.01492 9.2735 6.95192 9.29451C6.73306 9.36746 6.57279 9.46473 6.40367 9.62942C6.17487 9.85049 6.03228 10.1213 5.97922 10.4341C5.95269 10.5889 5.96264 10.8685 5.99912 11.0133C6.03228 11.1437 7.84834 16.068 7.8815 16.1177C7.97656 16.2592 8.20979 16.2614 8.30153 16.121C8.33248 16.0746 10.0656 11.1658 10.1032 11.0177C10.2359 10.5004 10.0966 9.96102 9.73846 9.604C9.54392 9.40835 9.30849 9.28787 9.02884 9.23924C8.89399 9.21603 7.3001 9.21713 7.15861 9.24034Z" fill="#1E1E1E"/>
<path d="M12.1425 9.24032C12.0574 9.26243 11.9182 9.33317 11.8308 9.39949C11.4827 9.66367 11.1256 10.2926 10.7741 11.262C10.6349 11.6433 9.03656 16.2028 9.03656 16.2161C9.03656 16.2282 9.29521 16.2305 10.5984 16.2282C12.0762 16.2249 12.1624 16.2238 12.231 16.2039C12.5239 16.121 12.7151 15.9331 12.7969 15.6479L12.8223 15.5617V12.6436C12.8223 9.86705 12.8212 9.72114 12.8024 9.63272C12.7538 9.40944 12.6521 9.28343 12.483 9.23811C12.4078 9.21822 12.221 9.21932 12.1425 9.24032Z" fill="#1E1E1E"/>
<path d="M3.60938 13.1434C3.60938 15.5198 3.60938 15.5541 3.63148 15.6392C3.67017 15.7884 3.72212 15.8802 3.83597 15.9929C3.94871 16.1056 4.03824 16.1576 4.18968 16.1996C4.27589 16.2228 4.2991 16.2239 4.96009 16.2283C5.33591 16.2306 5.64319 16.2294 5.64319 16.2261C5.64319 16.2173 3.61932 10.7437 3.6138 10.7381C3.61159 10.7359 3.60938 11.8181 3.60938 13.1434Z" fill="#1E1E1E"/>
</g>
<defs>
<clipPath id="clip0_1348_405">
<rect width="16" height="16" fill="white" transform="translate(0 0.216797)"/>
</clipPath>
</defs>
</svg>
